<mxfile host="app.diagrams.net" modified="2023-11-21T17:44:08.087Z" agent="Mozilla/5.0 (Macintosh; Intel Mac OS X 10_15_7) AppleWebKit/537.36 (KHTML, like Gecko) Chrome/119.0.0.0 Safari/537.36" etag="cVJJ5j0EROWiBzXPWz5y" version="22.1.3" type="github">
  <diagram name="Página-1" id="IAEdC-_NnEa2JzYTUQMX">
    <mxGraphModel dx="1242" dy="831" grid="1" gridSize="10" guides="1" tooltips="1" connect="1" arrows="1" fold="1" page="1" pageScale="1" pageWidth="827" pageHeight="1169" math="0" shadow="0">
      <root>
        <mxCell id="0" />
        <mxCell id="1" parent="0" />
        <mxCell id="pMwjdMIliSxabNnvG3Ax-6" style="edgeStyle=orthogonalEdgeStyle;rounded=0;orthogonalLoop=1;jettySize=auto;html=1;exitX=1;exitY=0.5;exitDx=0;exitDy=0;entryX=0;entryY=0.5;entryDx=0;entryDy=0;endArrow=none;endFill=0;" edge="1" parent="1" source="pMwjdMIliSxabNnvG3Ax-1" target="pMwjdMIliSxabNnvG3Ax-4">
          <mxGeometry relative="1" as="geometry" />
        </mxCell>
        <mxCell id="pMwjdMIliSxabNnvG3Ax-1" value="pacientes" style="whiteSpace=wrap;html=1;align=center;fillColor=#ffe6cc;strokeColor=#d79b00;" vertex="1" parent="1">
          <mxGeometry x="110" y="300" width="100" height="40" as="geometry" />
        </mxCell>
        <mxCell id="pMwjdMIliSxabNnvG3Ax-8" style="edgeStyle=orthogonalEdgeStyle;shape=connector;rounded=0;orthogonalLoop=1;jettySize=auto;html=1;exitX=1;exitY=0.5;exitDx=0;exitDy=0;entryX=0;entryY=0.5;entryDx=0;entryDy=0;labelBackgroundColor=default;strokeColor=default;align=center;verticalAlign=middle;fontFamily=Helvetica;fontSize=11;fontColor=default;endArrow=none;endFill=0;" edge="1" parent="1" source="pMwjdMIliSxabNnvG3Ax-2" target="pMwjdMIliSxabNnvG3Ax-5">
          <mxGeometry relative="1" as="geometry" />
        </mxCell>
        <mxCell id="pMwjdMIliSxabNnvG3Ax-2" value="ingresos" style="whiteSpace=wrap;html=1;align=center;fillColor=#ffe6cc;strokeColor=#d79b00;" vertex="1" parent="1">
          <mxGeometry x="440" y="300" width="100" height="40" as="geometry" />
        </mxCell>
        <mxCell id="pMwjdMIliSxabNnvG3Ax-3" value="médicos" style="whiteSpace=wrap;html=1;align=center;fillColor=#ffe6cc;strokeColor=#d79b00;" vertex="1" parent="1">
          <mxGeometry x="770" y="300" width="100" height="40" as="geometry" />
        </mxCell>
        <mxCell id="pMwjdMIliSxabNnvG3Ax-7" style="edgeStyle=orthogonalEdgeStyle;shape=connector;rounded=0;orthogonalLoop=1;jettySize=auto;html=1;exitX=1;exitY=0.5;exitDx=0;exitDy=0;entryX=0;entryY=0.5;entryDx=0;entryDy=0;labelBackgroundColor=default;strokeColor=default;align=center;verticalAlign=middle;fontFamily=Helvetica;fontSize=11;fontColor=default;endArrow=none;endFill=0;" edge="1" parent="1" source="pMwjdMIliSxabNnvG3Ax-4" target="pMwjdMIliSxabNnvG3Ax-2">
          <mxGeometry relative="1" as="geometry" />
        </mxCell>
        <mxCell id="pMwjdMIliSxabNnvG3Ax-4" value="tienen" style="shape=rhombus;perimeter=rhombusPerimeter;whiteSpace=wrap;html=1;align=center;fillColor=#d5e8d4;strokeColor=#82b366;" vertex="1" parent="1">
          <mxGeometry x="270" y="290" width="120" height="60" as="geometry" />
        </mxCell>
        <mxCell id="pMwjdMIliSxabNnvG3Ax-9" style="edgeStyle=orthogonalEdgeStyle;shape=connector;rounded=0;orthogonalLoop=1;jettySize=auto;html=1;exitX=1;exitY=0.5;exitDx=0;exitDy=0;entryX=0;entryY=0.5;entryDx=0;entryDy=0;labelBackgroundColor=default;strokeColor=default;align=center;verticalAlign=middle;fontFamily=Helvetica;fontSize=11;fontColor=default;endArrow=none;endFill=0;" edge="1" parent="1" source="pMwjdMIliSxabNnvG3Ax-5" target="pMwjdMIliSxabNnvG3Ax-3">
          <mxGeometry relative="1" as="geometry" />
        </mxCell>
        <mxCell id="pMwjdMIliSxabNnvG3Ax-5" value="atienden" style="shape=rhombus;perimeter=rhombusPerimeter;whiteSpace=wrap;html=1;align=center;fillColor=#d5e8d4;strokeColor=#82b366;" vertex="1" parent="1">
          <mxGeometry x="600" y="290" width="120" height="60" as="geometry" />
        </mxCell>
      </root>
    </mxGraphModel>
  </diagram>
</mxfile>
